<?xml version="1.0" encoding="utf-8"?>
<!-- Generator: Adobe Illustrator 23.0.3, SVG Export Plug-In . SVG Version: 6.00 Build 0)  -->
<svg version="1.1" id="Layer_1" xmlns="http://www.w3.org/2000/svg" xmlns:xlink="http://www.w3.org/1999/xlink" x="0px" y="0px"
	 viewBox="0 0 576 512" style="enable-background:new 0 0 576 512;" xml:space="preserve">
<path d="M192,496c0,8.8,7.2,16,16,16h32c8.8,0,16-7.2,16-16V320h-64V496z M224,224h-50.9l-45.2-45.3C115.8,166.6,99.7,160,82.7,160
	H64c-17.1,0-33.2,6.7-45.3,18.8C6.7,190.9,0,207,0,224.1L0.2,320L0,480c0,17.7,14.3,32,31.9,32s32-14.3,32-32L64,379.3
	c0.9,0.5,1.6,1.3,2.5,1.7l29.1,43v56c0,17.7,14.3,32,32,32s32-14.3,32-32v-56.5c0-9.9-2.3-19.8-6.7-28.6l-41.2-61.3V253l20.9,20.9
	c9.1,9.1,21.1,14.1,33.9,14.1H224c17.7,0,32-14.3,32-32S241.7,224,224,224z M64,128c26.5,0,48-21.5,48-48S90.5,32,64,32
	S16,53.5,16,80S37.5,128,64,128z M288,32l31.5,223.1l-30.9,154.6c-4.3,21.6,13,38.3,31.4,38.3c15.2,0,28-9.1,32.3-30.4
	c0.9,16.9,14.6,30.4,31.7,30.4c17.7,0,32-14.3,32-32c0,17.7,14.3,32,32,32s32-14.3,32-32V0H288V32z M192,32v160h64V0h-32
	C206.3,0,192,14.3,192,32z M544,0h-32v496c0,8.8,7.2,16,16,16h32c8.8,0,16-7.2,16-16V32C576,14.3,561.7,0,544,0z"/>
</svg>
